<svg xmlns="http://www.w3.org/2000/svg" width="128" height="32" viewBox="0 0 128 32" fill="none">
  <!-- Bag icon -->
  <g>
    <rect x="2" y="8" width="18" height="18" rx="3" fill="#111827"/>
    <path d="M7 12c0-3.314 2.239-6 5-6s5 2.686 5 6" stroke="#ffffff" stroke-width="2" stroke-linecap="round"/>
    <circle cx="9" cy="16" r="1.5" fill="#ffffff"/>
    <circle cx="15" cy="16" r="1.5" fill="#ffffff"/>
  </g>
  <!-- Wordmark -->
  <g fill="#111827">
    <path d="M30 22c1.4 0 2.6-.5 3.6-1.5l-1.5-1.5c-.6.6-1.3.9-2.1.9-1.3 0-2.3-.8-2.6-2h6.9c.1-.3.1-.7.1-1 0-2.9-2-5.4-5-5.4-3 0-5.4 2.4-5.4 5.5S27 22 30 22zm-2.6-6.7c.3-1.1 1.2-1.9 2.6-1.9 1.3 0 2.2.8 2.4 1.9h-5z"/>
    <path d="M40.1 21.8h2.4v-5.9c0-1.4.9-2.3 2.1-2.3 1.2 0 1.9.8 1.9 2.2v6h2.4v-6.7c0-2.5-1.4-4-3.6-4-1.4 0-2.5.6-3.1 1.6h-.1v-1.4h-2z"/>
    <path d="M56.4 22c1.1 0 2.1-.4 2.8-1.2h.1v1h2.3V9.8h-2.4v4.5h-.1c-.6-.8-1.6-1.2-2.8-1.2-2.6 0-4.6 2.1-4.6 4.5 0 2.6 2 4.4 4.7 4.4zm.7-2.1c-1.4 0-2.7-1.1-2.7-2.7 0-1.6 1.2-2.8 2.7-2.8s2.6 1.2 2.6 2.8c0 1.6-1.2 2.7-2.6 2.7z"/>
    <path d="M66.7 25.5h2.4v-5.3h.1c.6.8 1.6 1.2 2.8 1.2 2.6 0 4.6-2 4.6-4.6 0-2.5-1.9-4.4-4.6-4.4-1.2 0-2.3.5-2.9 1.3h-.1v-1.1h-2.3v12.9zm5.1-7.6c-1.5 0-2.7-1.2-2.7-2.7s1.2-2.7 2.7-2.7c1.6 0 2.7 1.2 2.7 2.7s-1.1 2.7-2.7 2.7z"/>
    <path d="M85.6 22c2.6 0 4.6-2 4.6-4.6 0-2.5-2-4.4-4.6-4.4-2.6 0-4.6 2-4.6 4.5 0 2.6 2 4.5 4.6 4.5zm0-2.1c-1.5 0-2.6-1.2-2.6-2.7s1.1-2.7 2.6-2.7c1.6 0 2.7 1.2 2.7 2.7s-1.1 2.7-2.7 2.7z"/>
    <path d="M92.5 21.8h2.4v-4c0-1.4.9-2.3 2.1-2.3 1.2 0 1.9.8 1.9 2.2v4.1h2.4v-4.8c0-2.5-1.4-4-3.6-4-1.4 0-2.5.6-3.1 1.6h-.1v-1.4h-2v8.9z"/>
    <path d="M111.3 22c1.2 0 2.3-.4 3.1-1.2l-1.2-1.6c-.5.5-1.2.8-1.9.8-1.5 0-2.6-1.2-2.6-2.7s1.1-2.7 2.6-2.7c.7 0 1.4.3 1.9.8l1.2-1.6c-.8-.7-1.9-1.1-3.1-1.1-2.8 0-5 1.9-5 4.5 0 2.7 2.2 4.8 5 4.8z"/>
    <path d="M118.9 25.5h2.4v-4.7h.1c.5.7 1.5 1.2 2.7 1.2 2.4 0 4.3-2 4.3-4.6 0-2.5-1.8-4.4-4.3-4.4-1.2 0-2.2.5-2.8 1.3h-.1V9.8h-2.3v15.7zm5-7.6c-1.4 0-2.6-1.2-2.6-2.7s1.2-2.7 2.6-2.7c1.5 0 2.6 1.2 2.6 2.7s-1.1 2.7-2.6 2.7z"/>
  </g>
</svg>

